<svg width="42" height="21" viewBox="0 0 42 21" fill="none" xmlns="http://www.w3.org/2000/svg">
<g clip-path="url(#clip0_25_270)">
<path d="M2.268 20.216C1.836 20.216 1.485 20.117 1.215 19.919C0.963 19.721 0.81 19.46 0.756 19.136C0.702 18.794 0.765 18.416 0.945 18.002L8.073 2.207C8.307 1.685 8.586 1.316 8.91 1.1C9.252 0.865999 9.639 0.748998 10.071 0.748998C10.485 0.748998 10.854 0.865999 11.178 1.1C11.52 1.316 11.808 1.685 12.042 2.207L19.197 18.002C19.395 18.416 19.467 18.794 19.413 19.136C19.359 19.478 19.206 19.748 18.954 19.946C18.702 20.126 18.369 20.216 17.955 20.216C17.451 20.216 17.055 20.099 16.767 19.865C16.497 19.613 16.254 19.235 16.038 18.731L14.283 14.654L15.741 15.599H4.347L5.805 14.654L4.077 18.731C3.843 19.253 3.6 19.631 3.348 19.865C3.096 20.099 2.736 20.216 2.268 20.216ZM10.017 4.718L6.237 13.709L5.535 12.845H14.553L13.878 13.709L10.071 4.718H10.017ZM21.5089 14.114C21.1129 14.114 20.7799 13.988 20.5099 13.736C20.2579 13.466 20.1319 13.142 20.1319 12.764C20.1319 12.368 20.2579 12.044 20.5099 11.792C20.7799 11.54 21.1129 11.414 21.5089 11.414H27.2599C27.6379 11.414 27.9529 11.54 28.2049 11.792C28.4749 12.044 28.6099 12.368 28.6099 12.764C28.6099 13.142 28.4749 13.466 28.2049 13.736C27.9529 13.988 27.6379 14.114 27.2599 14.114H21.5089ZM28.6259 20C28.1759 20 27.8069 19.91 27.5189 19.73C27.2489 19.55 27.0599 19.307 26.9519 19.001C26.8619 18.677 26.8619 18.326 26.9519 17.948C27.0599 17.552 27.2669 17.147 27.5729 16.733L37.8869 2.747V3.854H28.3559C27.8519 3.854 27.4649 3.728 27.1949 3.476C26.9429 3.224 26.8169 2.864 26.8169 2.396C26.8169 1.928 26.9429 1.577 27.1949 1.343C27.4649 1.091 27.8519 0.964999 28.3559 0.964999H39.5339C39.9839 0.964999 40.3439 1.055 40.6139 1.235C40.9019 1.415 41.0909 1.658 41.1809 1.964C41.2889 2.27 41.2889 2.621 41.1809 3.017C41.0909 3.413 40.8929 3.818 40.5869 4.232L30.2729 18.191V17.111H40.2089C40.7129 17.111 41.0909 17.237 41.3429 17.489C41.6129 17.723 41.7479 18.074 41.7479 18.542C41.7479 19.01 41.6129 19.37 41.3429 19.622C41.0909 19.874 40.7129 20 40.2089 20H28.6259Z" fill="white"/>
</g>
<defs>
<clipPath id="clip0_25_270">
<rect width="42" height="21" fill="white"/>
</clipPath>
</defs>
</svg>
