<svg width="29" height="29" viewBox="0 0 29 29" fill="none" xmlns="http://www.w3.org/2000/svg">
<path d="M19.6013 9.39874C19.4734 9.26986 19.3214 9.16757 19.1538 9.09776C18.9863 9.02795 18.8065 8.99201 18.625 8.99201C18.4435 8.99201 18.2638 9.02795 18.0962 9.09776C17.9287 9.16757 17.7766 9.26986 17.6488 9.39874L14.5 12.5612L11.3513 9.39874C11.0923 9.13982 10.7412 8.99436 10.375 8.99436C10.0089 8.99436 9.65768 9.13982 9.39877 9.39874C9.13985 9.65765 8.99439 10.0088 8.99439 10.375C8.99439 10.7412 9.13985 11.0923 9.39877 11.3512L12.5613 14.5L9.39877 17.6487C9.26989 17.7766 9.1676 17.9286 9.09779 18.0962C9.02798 18.2638 8.99204 18.4435 8.99204 18.625C8.99204 18.8065 9.02798 18.9862 9.09779 19.1538C9.1676 19.3213 9.26989 19.4734 9.39877 19.6012C9.52659 19.7301 9.67867 19.8324 9.84622 19.9022C10.0138 19.972 10.1935 20.008 10.375 20.008C10.5565 20.008 10.7363 19.972 10.9038 19.9022C11.0714 19.8324 11.2234 19.7301 11.3513 19.6012L14.5 16.4387L17.6488 19.6012C17.7766 19.7301 17.9287 19.8324 18.0962 19.9022C18.2638 19.972 18.4435 20.008 18.625 20.008C18.8065 20.008 18.9863 19.972 19.1538 19.9022C19.3214 19.8324 19.4734 19.7301 19.6013 19.6012C19.7301 19.4734 19.8324 19.3213 19.9022 19.1538C19.972 18.9862 20.008 18.8065 20.008 18.625C20.008 18.4435 19.972 18.2638 19.9022 18.0962C19.8324 17.9286 19.7301 17.7766 19.6013 17.6487L16.4388 14.5L19.6013 11.3512C19.7301 11.2234 19.8324 11.0713 19.9022 10.9038C19.972 10.7362 20.008 10.5565 20.008 10.375C20.008 10.1935 19.972 10.0138 19.9022 9.84619C19.8324 9.67864 19.7301 9.52656 19.6013 9.39874V9.39874ZM24.2213 4.77874C22.9529 3.46547 21.4356 2.41797 19.7581 1.69734C18.0805 0.976719 16.2762 0.597408 14.4505 0.581543C12.6248 0.565678 10.8142 0.913577 9.1244 1.60494C7.43457 2.2963 5.89936 3.31728 4.60834 4.60831C3.31731 5.89933 2.29633 7.43454 1.60497 9.12437C0.913607 10.8142 0.565709 12.6248 0.581574 14.4505C0.597439 16.2762 0.97675 18.0805 1.69737 19.758C2.418 21.4356 3.4655 22.9528 4.77877 24.2212C6.04716 25.5345 7.5644 26.582 9.24196 27.3026C10.9195 28.0233 12.7238 28.4026 14.5495 28.4184C16.3752 28.4343 18.1858 28.0864 19.8756 27.395C21.5655 26.7037 23.1007 25.6827 24.3917 24.3917C25.6827 23.1006 26.7037 21.5654 27.3951 19.8756C28.0864 18.1858 28.4343 16.3752 28.4185 14.5495C28.4026 12.7238 28.0233 10.9195 27.3027 9.24192C26.582 7.56437 25.5345 6.04713 24.2213 4.77874V4.77874ZM22.2825 22.2825C20.4841 24.0829 18.117 25.2041 15.5846 25.455C13.0522 25.706 10.5112 25.0711 8.39436 23.6586C6.27757 22.246 4.71601 20.1433 3.97573 17.7085C3.23545 15.2738 3.36225 12.6577 4.33452 10.3059C5.3068 7.9542 7.0644 6.01232 9.30787 4.81113C11.5513 3.60995 14.1419 3.22379 16.6382 3.71844C19.1344 4.21308 21.382 5.55794 22.9978 7.52387C24.6137 9.4898 25.498 11.9552 25.5 14.5C25.5049 15.9455 25.2231 17.3776 24.6708 18.7135C24.1185 20.0494 23.3068 21.2624 22.2825 22.2825V22.2825Z" fill="white"/>
</svg>
