<svg width="149" height="20" viewBox="0 0 149 20" fill="none" xmlns="http://www.w3.org/2000/svg">
<g clip-path="url(#clip0_25_259)">
<path d="M0.672 13.28C0.672 11.904 0.928 10.696 1.44 9.656C1.968 8.616 2.68 7.816 3.576 7.256C4.472 6.696 5.472 6.416 6.576 6.416C7.456 6.416 8.256 6.6 8.976 6.968C9.712 7.336 10.288 7.832 10.704 8.456V2.24H14.808V20H10.704V18.08C10.32 18.72 9.768 19.232 9.048 19.616C8.344 20 7.52 20.192 6.576 20.192C5.472 20.192 4.472 19.912 3.576 19.352C2.68 18.776 1.968 17.968 1.44 16.928C0.928 15.872 0.672 14.656 0.672 13.28ZM10.704 13.304C10.704 12.28 10.416 11.472 9.84 10.88C9.28 10.288 8.592 9.992 7.776 9.992C6.96 9.992 6.264 10.288 5.688 10.88C5.128 11.456 4.848 12.256 4.848 13.28C4.848 14.304 5.128 15.12 5.688 15.728C6.264 16.32 6.96 16.616 7.776 16.616C8.592 16.616 9.28 16.32 9.84 15.728C10.416 15.136 10.704 14.328 10.704 13.304ZM21.8811 8.84C22.3611 8.104 22.9611 7.528 23.6811 7.112C24.4011 6.68 25.2011 6.464 26.0811 6.464V10.808H24.9531C23.9291 10.808 23.1611 11.032 22.6491 11.48C22.1371 11.912 21.8811 12.68 21.8811 13.784V20H17.7771V6.608H21.8811V8.84ZM30.1067 5.216C29.3867 5.216 28.7947 5.008 28.3307 4.592C27.8827 4.16 27.6587 3.632 27.6587 3.008C27.6587 2.368 27.8827 1.84 28.3307 1.424C28.7947 0.991999 29.3867 0.775999 30.1067 0.775999C30.8107 0.775999 31.3867 0.991999 31.8347 1.424C32.2987 1.84 32.5307 2.368 32.5307 3.008C32.5307 3.632 32.2987 4.16 31.8347 4.592C31.3867 5.008 30.8107 5.216 30.1067 5.216ZM32.1467 6.608V20H28.0427V6.608H32.1467ZM43.2808 6.464C44.8488 6.464 46.0968 6.976 47.0248 8C47.9688 9.008 48.4408 10.4 48.4408 12.176V20H44.3608V12.728C44.3608 11.832 44.1288 11.136 43.6648 10.64C43.2008 10.144 42.5768 9.896 41.7928 9.896C41.0088 9.896 40.3848 10.144 39.9208 10.64C39.4568 11.136 39.2248 11.832 39.2248 12.728V20H35.1208V6.608H39.2248V8.384C39.6408 7.792 40.2008 7.328 40.9048 6.992C41.6088 6.64 42.4008 6.464 43.2808 6.464ZM59.4767 20L55.3967 14.384V20H51.2927V2.24H55.3967V12.056L59.4527 6.608H64.5167L58.9487 13.328L64.5647 20H59.4767ZM71.5766 20.192C70.4086 20.192 69.3686 19.992 68.4566 19.592C67.5446 19.192 66.8246 18.648 66.2966 17.96C65.7686 17.256 65.4726 16.472 65.4086 15.608H69.4646C69.5126 16.072 69.7286 16.448 70.1126 16.736C70.4966 17.024 70.9686 17.168 71.5286 17.168C72.0406 17.168 72.4326 17.072 72.7046 16.88C72.9926 16.672 73.1366 16.408 73.1366 16.088C73.1366 15.704 72.9366 15.424 72.5366 15.248C72.1366 15.056 71.4886 14.848 70.5926 14.624C69.6326 14.4 68.8326 14.168 68.1926 13.928C67.5526 13.672 67.0006 13.28 66.5366 12.752C66.0726 12.208 65.8406 11.48 65.8406 10.568C65.8406 9.8 66.0486 9.104 66.4646 8.48C66.8966 7.84 67.5206 7.336 68.3366 6.968C69.1686 6.6 70.1526 6.416 71.2886 6.416C72.9686 6.416 74.2886 6.832 75.2486 7.664C76.2246 8.496 76.7846 9.6 76.9286 10.976H73.1366C73.0726 10.512 72.8646 10.144 72.5126 9.872C72.1766 9.6 71.7286 9.464 71.1686 9.464C70.6886 9.464 70.3206 9.56 70.0646 9.752C69.8086 9.928 69.6806 10.176 69.6806 10.496C69.6806 10.88 69.8806 11.168 70.2806 11.36C70.6966 11.552 71.3366 11.744 72.2006 11.936C73.1926 12.192 74.0006 12.448 74.6246 12.704C75.2486 12.944 75.7926 13.344 76.2566 13.904C76.7366 14.448 76.9846 15.184 77.0006 16.112C77.0006 16.896 76.7766 17.6 76.3286 18.224C75.8966 18.832 75.2646 19.312 74.4326 19.664C73.6166 20.016 72.6646 20.192 71.5766 20.192ZM92.1354 13.088C92.1354 13.472 92.1114 13.872 92.0634 14.288H82.7754C82.8394 15.12 83.1034 15.76 83.5674 16.208C84.0474 16.64 84.6314 16.856 85.3194 16.856C86.3434 16.856 87.0554 16.424 87.4554 15.56H91.8234C91.5994 16.44 91.1914 17.232 90.5994 17.936C90.0234 18.64 89.2954 19.192 88.4154 19.592C87.5354 19.992 86.5514 20.192 85.4634 20.192C84.1514 20.192 82.9834 19.912 81.9594 19.352C80.9354 18.792 80.1354 17.992 79.5594 16.952C78.9834 15.912 78.6954 14.696 78.6954 13.304C78.6954 11.912 78.9754 10.696 79.5354 9.656C80.1114 8.616 80.9114 7.816 81.9354 7.256C82.9594 6.696 84.1354 6.416 85.4634 6.416C86.7594 6.416 87.9114 6.688 88.9194 7.232C89.9274 7.776 90.7114 8.552 91.2714 9.56C91.8474 10.568 92.1354 11.744 92.1354 13.088ZM87.9354 12.008C87.9354 11.304 87.6954 10.744 87.2154 10.328C86.7354 9.912 86.1354 9.704 85.4154 9.704C84.7274 9.704 84.1434 9.904 83.6634 10.304C83.1994 10.704 82.9114 11.272 82.7994 12.008H87.9354ZM93.4845 13.28C93.4845 11.904 93.7405 10.696 94.2525 9.656C94.7805 8.616 95.4925 7.816 96.3885 7.256C97.2845 6.696 98.2845 6.416 99.3885 6.416C100.333 6.416 101.157 6.608 101.861 6.992C102.581 7.376 103.133 7.88 103.517 8.504V6.608H107.621V20H103.517V18.104C103.117 18.728 102.557 19.232 101.837 19.616C101.133 20 100.309 20.192 99.3645 20.192C98.2765 20.192 97.2845 19.912 96.3885 19.352C95.4925 18.776 94.7805 17.968 94.2525 16.928C93.7405 15.872 93.4845 14.656 93.4845 13.28ZM103.517 13.304C103.517 12.28 103.229 11.472 102.653 10.88C102.093 10.288 101.405 9.992 100.589 9.992C99.7725 9.992 99.0765 10.288 98.5005 10.88C97.9405 11.456 97.6605 12.256 97.6605 13.28C97.6605 14.304 97.9405 15.12 98.5005 15.728C99.0765 16.32 99.7725 16.616 100.589 16.616C101.405 16.616 102.093 16.32 102.653 15.728C103.229 15.136 103.517 14.328 103.517 13.304ZM114.694 8.84C115.174 8.104 115.774 7.528 116.494 7.112C117.214 6.68 118.014 6.464 118.894 6.464V10.808H117.766C116.742 10.808 115.974 11.032 115.462 11.48C114.95 11.912 114.694 12.68 114.694 13.784V20H110.59V6.608H114.694V8.84ZM120.039 13.304C120.039 11.912 120.319 10.696 120.879 9.656C121.455 8.616 122.247 7.816 123.255 7.256C124.279 6.696 125.447 6.416 126.759 6.416C128.439 6.416 129.839 6.856 130.959 7.736C132.095 8.616 132.839 9.856 133.191 11.456H128.823C128.455 10.432 127.743 9.92 126.687 9.92C125.935 9.92 125.335 10.216 124.887 10.808C124.439 11.384 124.215 12.216 124.215 13.304C124.215 14.392 124.439 15.232 124.887 15.824C125.335 16.4 125.935 16.688 126.687 16.688C127.743 16.688 128.455 16.176 128.823 15.152H133.191C132.839 16.72 132.095 17.952 130.959 18.848C129.823 19.744 128.423 20.192 126.759 20.192C125.447 20.192 124.279 19.912 123.255 19.352C122.247 18.792 121.455 17.992 120.879 16.952C120.319 15.912 120.039 14.696 120.039 13.304ZM143.618 6.464C145.154 6.464 146.386 6.976 147.314 8C148.242 9.008 148.706 10.4 148.706 12.176V20H144.626V12.728C144.626 11.832 144.394 11.136 143.93 10.64C143.466 10.144 142.842 9.896 142.058 9.896C141.274 9.896 140.65 10.144 140.186 10.64C139.722 11.136 139.49 11.832 139.49 12.728V20H135.386V2.24H139.49V8.408C139.906 7.816 140.474 7.344 141.194 6.992C141.914 6.64 142.722 6.464 143.618 6.464Z" fill="black"/>
<circle cx="30" cy="3" r="3" fill="#327D38"/>
</g>
<defs>
<clipPath id="clip0_25_259">
<rect width="149" height="20" fill="white"/>
</clipPath>
</defs>
</svg>
