<svg width="24" height="24" viewBox="0 0 24 24" fill="none" xmlns="http://www.w3.org/2000/svg">
<path d="M23.41 2.22334C23.5454 2.05261 23.6303 1.84736 23.655 1.63085C23.6798 1.41434 23.6434 1.19523 23.55 0.998343C23.4554 0.79981 23.3067 0.632042 23.1209 0.514383C22.9351 0.396724 22.7199 0.333966 22.5 0.333344H1.49999C1.28009 0.333966 1.06485 0.396724 0.879068 0.514383C0.693291 0.632042 0.54455 0.79981 0.449993 0.998343C0.356594 1.19523 0.320204 1.41434 0.344948 1.63085C0.369692 1.84736 0.45458 2.05261 0.589993 2.22334L10.8333 15.0333V21.3333H4.12499C3.81557 21.3333 3.51883 21.4563 3.30004 21.6751C3.08124 21.8938 2.95833 22.1906 2.95833 22.5C2.95833 22.8094 3.08124 23.1062 3.30004 23.325C3.51883 23.5438 3.81557 23.6667 4.12499 23.6667H19.875C20.1844 23.6667 20.4812 23.5438 20.7 23.325C20.9187 23.1062 21.0417 22.8094 21.0417 22.5C21.0417 22.1906 20.9187 21.8938 20.7 21.6751C20.4812 21.4563 20.1844 21.3333 19.875 21.3333H13.1667V15.0333L23.41 2.22334ZM3.92666 2.66668H20.0733L17.2733 6.16668H6.77333L3.92666 2.66668ZM12 12.7583L8.59333 8.50001H15.4067L12 12.7583Z" fill="white"/>
</svg>
