<svg width="28" height="25" viewBox="0 0 28 25" fill="none" xmlns="http://www.w3.org/2000/svg">
<path d="M26.9468 22.5171L22.0001 18.0704C23.9202 15.9008 24.8501 13.1468 24.5985 10.3749C24.3469 7.603 22.933 5.02379 20.6475 3.16762C18.3619 1.31145 15.3785 0.319415 12.3107 0.395492C9.24283 0.471569 6.32375 1.60998 4.15364 3.57664C1.98353 5.5433 0.727358 8.18872 0.643411 10.969C0.559463 13.7492 1.65412 16.4529 3.70231 18.5242C5.75049 20.5954 8.59652 21.8768 11.6552 22.1048C14.7138 22.3328 17.7527 21.4901 20.1468 19.75L25.0535 24.1967C25.1774 24.3099 25.3249 24.3998 25.4873 24.4612C25.6498 24.5225 25.8241 24.5541 26.0001 24.5541C26.1761 24.5541 26.3504 24.5225 26.5129 24.4612C26.6754 24.3998 26.8228 24.3099 26.9468 24.1967C27.1871 23.9714 27.3214 23.6703 27.3214 23.3569C27.3214 23.0435 27.1871 22.7424 26.9468 22.5171V22.5171ZM12.6668 19.75C10.8208 19.75 9.01632 19.2539 7.48146 18.3245C5.9466 17.3951 4.75033 16.0741 4.04391 14.5285C3.33749 12.983 3.15266 11.2823 3.51279 9.64154C3.87292 8.00078 4.76183 6.49365 6.06712 5.31073C7.37241 4.12781 9.03545 3.32223 10.8459 2.99586C12.6564 2.6695 14.5331 2.837 16.2385 3.47719C17.9439 4.11738 19.4016 5.20151 20.4272 6.59248C21.4527 7.98344 22.0001 9.61877 22.0001 11.2917C22.0001 13.535 21.0168 15.6864 19.2664 17.2726C17.5161 18.8589 15.1421 19.75 12.6668 19.75V19.75Z" fill="white"/>
</svg>
