<svg width="30" height="27" viewBox="0 0 30 27" fill="none" xmlns="http://www.w3.org/2000/svg">
<path d="M13.9941 17.7496C13.9332 17.811 13.8764 17.8757 13.8241 17.9433C13.7705 18.0153 13.7276 18.0935 13.6966 18.1758C13.6557 18.2491 13.6271 18.3274 13.6116 18.4083C13.6046 18.4943 13.6046 18.5807 13.6116 18.6667C13.6068 18.8361 13.6456 19.0042 13.7249 19.1575C13.7886 19.3178 13.8901 19.4634 14.0223 19.5839C14.1545 19.7044 14.3141 19.797 14.4899 19.855C14.6595 19.9233 14.8429 19.9586 15.0283 19.9586C15.2137 19.9586 15.397 19.9233 15.5666 19.855C15.7424 19.797 15.9021 19.7044 16.0343 19.5839C16.1665 19.4634 16.268 19.3178 16.3316 19.1575C16.3945 19.0005 16.4234 18.8338 16.4166 18.6667C16.4177 18.4967 16.3819 18.3282 16.3114 18.1708C16.2409 18.0134 16.1371 17.8703 16.0058 17.7496C15.8741 17.6285 15.7174 17.5324 15.5447 17.4669C15.3721 17.4013 15.1869 17.3675 14.9999 17.3675C14.8129 17.3675 14.6277 17.4013 14.4551 17.4669C14.2825 17.5324 14.1258 17.6285 13.9941 17.7496ZM14.9999 0.583344C12.198 0.583344 9.45904 1.34089 7.12935 2.76019C4.79965 4.1795 2.98387 6.1968 1.91163 8.55702C0.83939 10.9172 0.558843 13.5143 1.10547 16.0199C1.65209 18.5255 3.00134 20.827 4.98258 22.6335C6.96382 24.4399 9.48808 25.6701 12.2361 26.1685C14.9842 26.6669 17.8327 26.4111 20.4213 25.4335C23.0099 24.4558 25.2224 22.8003 26.7791 20.6761C28.3357 18.552 29.1666 16.0547 29.1666 13.5C29.1666 11.8038 28.8002 10.1241 28.0882 8.55702C27.3763 6.98989 26.3328 5.56597 25.0173 4.36655C23.7018 3.16712 22.1401 2.21569 20.4213 1.56657C18.7025 0.917443 16.8603 0.583344 14.9999 0.583344V0.583344ZM14.9999 23.8333C12.7584 23.8333 10.5672 23.2273 8.70346 22.0919C6.83971 20.9564 5.38708 19.3426 4.52929 17.4544C3.6715 15.5662 3.44706 13.4885 3.88436 11.4841C4.32166 9.47961 5.40105 7.63838 6.98605 6.19324C8.57104 4.7481 10.5905 3.76394 12.7889 3.36523C14.9874 2.96652 17.2661 3.17115 19.337 3.95326C21.4079 4.73536 23.1779 6.05981 24.4232 7.75912C25.6686 9.45843 26.3333 11.4563 26.3333 13.5C26.3333 16.2406 25.1392 18.8689 23.0138 20.8068C20.8884 22.7447 18.0057 23.8333 14.9999 23.8333V23.8333ZM14.9999 7.04168C14.2534 7.04124 13.52 7.22008 12.8734 7.56021C12.2268 7.90033 11.6898 8.38974 11.3166 8.97918C11.2141 9.12619 11.1453 9.29059 11.1143 9.46249C11.0832 9.63438 11.0907 9.81022 11.1361 9.97943C11.1816 10.1486 11.2641 10.3077 11.3788 10.4471C11.4934 10.5864 11.6378 10.7032 11.8032 10.7904C11.9686 10.8776 12.1516 10.9334 12.3413 10.9544C12.531 10.9754 12.7234 10.9612 12.9069 10.9126C13.0904 10.8641 13.2612 10.7822 13.4091 10.6719C13.557 10.5616 13.6789 10.4252 13.7674 10.2708C13.8922 10.0737 14.072 9.91019 14.2884 9.79677C14.5048 9.68336 14.7503 9.62411 14.9999 9.62501C15.3756 9.62501 15.736 9.7611 16.0017 10.0033C16.2673 10.2456 16.4166 10.5741 16.4166 10.9167C16.4166 11.2592 16.2673 11.5878 16.0017 11.83C15.736 12.0723 15.3756 12.2083 14.9999 12.2083C14.6242 12.2083 14.2639 12.3444 13.9982 12.5867C13.7325 12.8289 13.5833 13.1574 13.5833 13.5V14.7917C13.5833 15.1342 13.7325 15.4628 13.9982 15.705C14.2639 15.9473 14.6242 16.0833 14.9999 16.0833C15.3756 16.0833 15.736 15.9473 16.0017 15.705C16.2673 15.4628 16.4166 15.1342 16.4166 14.7917V14.5592C17.3535 14.2492 18.1412 13.6488 18.6419 12.863C19.1425 12.0773 19.3244 11.156 19.1556 10.2604C18.9868 9.36472 18.4781 8.55166 17.7185 7.9633C16.9589 7.37494 15.9966 7.04873 14.9999 7.04168V7.04168Z" fill="white"/>
</svg>
